PathFileType	4	(X/Y/Z)	C:\Users\ebm\Documents\Erivelton\Erivelton\propulsion3.trc
DataRate	CameraRate	NumFrames	NumMarkers	Units	OrigDataRate	OrigDataStartFrame	OrigNumFrames
150.00	150.00	       7	28	mm	150.00	624	       997
Frame#	Time	IJ			PX			C7			T8			RAC			RAS			RPS			RAI			RPI			RLE			RME			RRS			RUS			R3M			R5M			LAC			LAS			LPS			LAI			LPI			LLE			LME			LRS			LUS			L3M			L5M			RW			LW			V_mid_elbow_r			V_mid_elbow_l			V_mid_wrist_r			V_mid_wrist_l			V_mid_trunk_low			V_mid_trunk_upp			
		X1	Y1	Z1	X2	Y2	Z2	X3	Y3	Z3	X4	Y4	Z4	X5	Y5	Z5	X6	Y6	Z6	X7	Y7	Z7	X8	Y8	Z8	X9	Y9	Z9	X10	Y10	Z10	X11	Y11	Z11	X12	Y12	Z12	X13	Y13	Z13	X14	Y14	Z14	X15	Y15	Z15	X16	Y16	Z16	X17	Y17	Z17	X18	Y18	Z18	X19	Y19	Z19	X20	Y20	Z20	X21	Y21	Z21	X22	Y22	Z22	X23	Y23	Z23	X24	Y24	Z24	X25	Y25	Z25	X26	Y26	Z26	X27	Y27	Z27	X28	Y28	Z28	

624	4.153	2135.20337	1010.43042	-88.40530	2121.95117	835.31287	-88.23985	2025.67200	1127.40833	-88.70807	1909.26501	951.78497	-96.40144	2084.89941	1041.31116	104.05515	2149.65161	873.77997	129.19821	2113.74341	875.84467	168.50188	2165.68408	796.53687	147.22054	2131.84033	801.62433	184.65034	2122.36743	715.51587	203.77080	2097.64966	690.14294	131.42082	2307.79248	503.63422	204.85341	2266.85400	510.48334	247.13535	2313.35449	426.96729	269.60962	2278.23877	440.88745	276.32315	2073.84375	1038.24805	-292.54828	2130.81152	870.83514	-348.87064	2086.94629	862.37909	-367.68161	2160.96094	798.36108	-369.09683	2111.97729	785.59778	-391.13748	2143.31714	724.88184	-400.16501	2101.58862	691.80756	-337.30725	2315.50000	514.86951	-358.66727	2286.19800	510.09122	-429.01563	2336.65039	439.22833	-429.69485	2300.40234	452.41534	-448.32703	2021.20471	299.22314	216.71199	2036.24353	301.23141	-411.71280	
625	4.160	2144.00806	1010.96619	-88.56171	2130.68604	835.90350	-88.48833	2034.39453	1127.87585	-88.62391	1918.03320	952.25433	-96.19938	2094.01514	1041.97644	103.97154	2158.60645	874.80469	129.25046	2122.73682	876.90253	168.73987	2174.63257	797.46893	147.69916	2141.03076	802.78986	185.26337	2131.49536	716.58496	204.65692	2106.70068	690.94397	132.54982	2318.52271	506.34653	206.34320	2277.28442	512.47083	248.12401	2324.63086	429.45651	270.53241	2289.31567	443.02884	276.78360	2081.99829	1038.93750	-292.52222	2138.61157	871.84796	-349.57367	2094.56982	862.98895	-367.73947	2169.01294	799.57294	-370.06342	2119.83252	786.50092	-391.51474	2151.59570	725.77240	-400.67542	2110.65649	692.59198	-337.60690	2326.07544	517.97717	-358.69742	2296.71875	512.45734	-428.99878	2348.33105	441.94971	-428.84567	2311.81982	454.82846	-447.90588	2029.48950	299.46869	216.94052	2044.86902	301.30936	-411.64633	
626	4.167	2152.78467	1011.58295	-88.49503	2139.47437	836.42065	-88.63901	2043.11926	1128.31812	-88.65223	1926.77026	952.77551	-96.00214	2102.93506	1042.77246	103.98752	2167.31641	875.50342	129.66664	2131.64917	878.03522	169.16263	2183.42847	798.47095	148.55898	2149.78613	803.96228	186.09914	2140.23096	717.74438	205.85715	2115.25830	691.78656	134.03870	2329.16333	509.28568	207.95482	2287.38330	514.68457	249.36813	2335.81250	432.20200	271.56403	2300.06494	445.02435	277.68457	2089.98340	1039.65942	-292.69080	2146.06250	873.15704	-351.05603	2102.15820	863.84045	-368.01007	2176.81860	800.77405	-371.05222	2127.45190	787.42853	-392.04279	2159.69751	726.78918	-401.42953	2119.19165	693.49908	-338.17355	2336.58643	521.15887	-358.93723	2307.14282	514.85419	-429.18958	2359.78320	444.91583	-428.18982	2322.87671	457.19397	-447.47794	2037.92224	299.73865	216.90117	2053.67603	301.40121	-411.56241	
627	4.173	2161.45776	1012.13080	-88.71614	2148.20142	836.95349	-88.80701	2051.72705	1128.77454	-88.62589	1935.50623	953.24139	-95.82887	2111.86011	1043.52283	103.83946	2175.58325	876.49823	129.81265	2140.31030	880.13721	168.92317	2191.97705	799.45380	149.69701	2158.32153	805.21198	187.20055	2148.53320	718.92786	207.33926	2123.44067	692.59241	135.88704	2339.40259	512.43500	209.57619	2297.38892	516.98523	250.56430	2346.99316	434.97409	272.43399	2310.84302	447.16043	278.31693	2098.04858	1040.45911	-292.73450	2153.65405	874.20508	-351.74207	2109.59424	864.84106	-368.21982	2184.38135	801.95471	-372.26257	2134.96582	788.51056	-392.71161	2167.48120	727.89398	-402.42865	2127.56445	694.40637	-339.07974	2346.89917	524.49451	-359.45059	2317.29321	517.40356	-429.56772	2371.03833	447.91489	-427.70444	2333.80054	459.51834	-447.18588	2046.33057	300.04510	217.14885	2062.26367	301.43393	-411.43442	
628	4.180	2170.10474	1012.69965	-88.87943	2156.91113	837.51001	-89.04150	2060.33765	1129.20740	-88.59119	1944.27856	953.66718	-95.67384	2120.73120	1044.35608	103.81799	2184.31372	877.22833	131.06377	2148.50830	880.47223	170.42232	2200.12158	800.34796	151.04166	2166.45557	806.58203	188.68921	2156.56396	720.15149	209.03693	2131.08447	693.53522	138.00720	2349.41675	515.89215	211.28554	2307.08569	519.37018	251.86603	2357.60181	438.89590	274.48233	2321.51489	449.37134	279.23627	2106.00049	1041.23865	-292.78690	2161.26172	875.27649	-352.50302	2116.97070	865.77051	-368.82397	2191.91577	803.14130	-373.39410	2142.29077	789.70660	-393.61777	2175.08887	728.96710	-403.59818	2135.50952	695.34253	-340.15146	2356.93433	527.97308	-360.26031	2327.15820	519.98621	-430.03381	2382.02466	451.08954	-427.55310	2344.39746	461.87009	-447.21106	2054.89209	300.29269	217.21664	2071.05664	301.59677	-411.36551	
629	4.187	2178.82227	1013.29065	-89.07035	2165.49243	837.94360	-89.11750	2068.82520	1129.61047	-88.62804	1953.00403	954.07666	-95.49343	2129.44165	1045.13208	103.75614	2192.24438	878.07910	131.57007	2156.85962	882.53906	170.58615	2208.03857	801.21497	152.62032	2174.51196	807.84589	190.09102	2164.30713	721.47003	211.01883	2138.43921	694.37817	140.40201	2359.14697	519.35974	213.02832	2316.69336	521.85400	253.12785	2368.49390	441.86642	275.45065	2332.13477	451.69315	279.98038	2113.77710	1042.02722	-292.73495	2168.69141	876.34125	-353.36441	2124.34326	866.81860	-369.42807	2199.30249	804.25854	-374.66653	2149.57520	790.86230	-394.61578	2182.44751	730.03107	-404.96005	2143.31152	696.28931	-341.41791	2366.66992	531.47534	-361.02820	2336.67773	522.51685	-430.68094	2392.62402	454.24225	-427.73547	2354.83301	464.10400	-447.30231	2063.39038	300.54031	217.32764	2079.77417	301.57544	-411.19858	
630	4.193	2187.49878	1013.78839	-89.05412	2174.23926	838.44995	-89.21994	2077.36597	1130.00610	-88.65479	1961.70984	954.41498	-95.32518	2138.11621	1045.96948	103.76439	2200.42310	878.77405	132.60191	2164.97021	883.66064	171.54483	2215.66919	802.07922	154.38661	2182.12256	809.17950	191.73692	2171.75854	722.77917	213.19620	2145.36377	695.27429	143.01660	2368.74756	522.78473	214.68280	2326.01660	524.49866	254.62178	2379.04980	444.99210	276.45316	2342.51245	454.15063	280.84897	2121.67041	1042.86011	-292.74371	2176.17773	877.38855	-354.23694	2130.94751	868.27887	-370.58405	2206.68628	805.34351	-375.96902	2156.83936	792.03632	-395.69592	2189.66992	731.13086	-406.50308	2150.87109	697.15277	-342.85587	2376.23389	535.03552	-362.03351	2346.06567	525.04681	-431.38937	2403.07886	457.36862	-428.02579	2364.75195	465.47232	-446.53110	2071.97974	300.75687	217.41008	2088.55298	301.59186	-411.15219	
